# xmcd
#
# Track frame offsets:
#	150
#	14113
#	30100
#	45125
#	62445
#	74363
#	85815
#	97695
#	114698
#	130073
#	142495
#
# Disc length: 2010 seconds
#
# Revision: 0
# Processed by: cddbd v1.5.2PL0 Copyright (c) Steve Scherf et al.
# Submitted via: audiograbber 1.83.01
#
DISCID=8a07d80b
DTITLE=Pat Garrett - How's Your Love Life
DYEAR=1900
DGENRE=Country
TTITLE0=I will hold on to you
TTITLE1=Let's set the night on fire
TTITLE2=How's your love life
TTITLE3=Lady Blue
TTITLE4=Hey good lookin'
TTITLE5=Sexy ole lady
TTITLE6=My working woman
TTITLE7=Tempting
TTITLE8=Call me some night when you're lonely
TTITLE9=Old enough to know better
TTITLE10=That's all right Mama
EXTD=
EXTT0=
EXTT1=
EXTT2=
EXTT3=
EXTT4=
EXTT5=
EXTT6=
EXTT7=
EXTT8=
EXTT9=
EXTT10=
PLAYORDER=
